#!OML:ASF E:/inclinewalkrobotboard/Project1/Captureday1/Session1/subject1.ASF
:FULLY-SPECIFIED
:DEGREES
351
root 0 0 0 1.6982797758297932 -10.791486890041284 0.7550234826011372
lowerback 0.09757485473436356 -1.5801041451768207 -2.4457527110314787
upperback -0.6395207177381521 -2.0750365306906757 1.9871517314901483
thorax -0.5225945491183243 -1.0197466273084037 3.3721439972582585
lowerneck -24.73207598534969 -1.4895601741985223 -7.407131105516225
upperneck 28.25640219933075 0.6228624276937422 1.5321842546115418
head 13.7129720858425 -0.5310668933750892 2.1035640782302014
rclavicle -2.529959883482623E-15 -9.058977803986108E-16
rhumerus -33.742123879382476 -4.556422649829573 -78.8096626918118
rradius 28.942188333816535
rwrist 20.495649251001147
rhand -17.352232602466056 8.842450562910287
rfingers 7.125019999999938
rthumb 8.890807892902425 -20.94164200670474
lclavicle -1.5480298349494384E-15 -7.834807999679637E-16
lhumerus -21.983681279277913 -5.729260002619467 91.81382377895383
lradius 65.23481649840109
lwrist 2.042036521906684
lhand -28.770441323810857 21.000708493662756
lfingers 7.125020000000026
lthumb -2.1395256504823177 51.00834300995576
rfemur -8.309660510981102 7.511374571623417 37.667308627738294
rtibia 27.272806695553264
rfoot -14.365593990587689 -6.329601880750751
rtoes 14.64999330712562
lfemur -14.36033422510813 1.4380236245171902 -14.314489102524224
ltibia 55.18353654184165
lfoot 4.334060861617804 -8.92589332383977
ltoes -8.870573821591467
352
root 0 0 0 1.698838763716144 -10.776164036038411 0.7435419948608593
lowerback 0.08167622646291672 -1.5660282447402052 -2.462959704559304
upperback -0.6504485271793478 -2.0547805471776535 1.9618211034241007
thorax -0.5269085055296516 -1.0089910751162952 3.356299649063758
lowerneck -24.529910045029663 -1.4926359561209965 -7.447882823978348
upperneck 28.51427863731128 0.5988172732874366 1.5615027789946434
head 13.763787289383842 -0.5448242987101029 2.119322338539755
rclavicle -3.781714581219139E-15 1.6857875764315567E-16
rhumerus -33.381277065257535 -4.880975987297214 -79.55843466446541
rradius 29.495937904867166
rwrist 20.377421569797228
rhand -17.31776361356741 8.741690984350464
rfingers 7.125019999999942
rthumb 8.925095286564495 -21.058119876287794
lclavicle -1.570738647889532E-15 -8.437625279061802E-17
lhumerus -22.017628321863814 -5.630799475293067 92.00361446103034
lradius 65.10401013481999
lwrist 1.834874521156912
lhand -28.94876834454768 20.877390233277158
lfingers 7.125020000000025
lthumb -2.312623461742551 50.87295528110695
rfemur -2.384131510036945 8.097972971087241 38.54969532570325
rtibia 25.706179237093984
rfoot -19.41985388089372 -7.2771970745080665
rtoes 12.507652085862706
lfemur -20.633400672624756 2.7267718460104695 -13.800044307582233
ltibia 56.85517366538163
lfoot -0.7097604096705172 -5.542978509613396
ltoes -7.448333720431188
353
root 0 0 0 1.7078536989202684 -10.746788611370569 0.7477726429482061
lowerback 0.06087534236866876 -1.551857954825428 -2.4925872774774787
upperback -0.661190967437461 -2.0350501440838196 1.9402445890272768
thorax -0.5280278003428515 -0.9980234685179213 3.351329125187438
lowerneck -24.441536259647247 -1.5233014450529117 -7.497587320812602
upperneck 28.532588214891447 0.5287279481995172 1.6582224639413012
head 13.742466224639774 -0.5641140877582604 2.149998359210975
rclavicle -2.6927216372863483E-15 8.756139210250869E-16
rhumerus -32.68266903328909 -4.4780405413625335 -80.52848049978759
rradius 30.251611568690862
rwrist 19.947778576712782
rhand -17.444365371621792 8.765359355507133
rfingers 7.1250199999999415
rthumb 8.803836446363574 -21.053933568513447
lclavicle -4.3368187118886603E-16 5.186787152004495E-16
lhumerus -21.770931990973793 -5.27729856379089 91.99081086533538
lradius 64.9710628893821
lwrist 1.6943056093189077
lhand -29.053061044006604 20.846556384735308
lfingers 7.125020000000025
lthumb -2.4134257856182755 50.832944879728174
rfemur 1.413056996057703 8.612211672585245 38.70189313288703
rtibia 23.129422399737326
rfoot -22.382460381852844 -8.355599945368942
rtoes 9.129046262260584
lfemur -23.630777932400257 2.86672533516665 -13.35451847406352
ltibia 55.26150940332384
lfoot -3.251057701685024 -3.639123496695576
ltoes -6.609462209534225
354
root 0 0 0 1.7231210521234053 -10.710242296707966 0.7593996323883168
lowerback 0.04527384120734346 -1.5397589116666086 -2.5204251780461644
upperback -0.6620041516079965 -2.0191081964002078 1.9242621642123574
thorax -0.521607953348185 -0.9891519584156387 3.3517270167599262
lowerneck -24.430061297043288 -1.5673911399060285 -7.544185724787266
upperneck 28.41373728756223 0.4386658984673124 1.7793428973636822
head 13.682361031940616 -0.5850277580679112 2.1841705853728803
rclavicle -1.9783421280946904E-15 1.0089545576748647E-15
rhumerus -31.72368749272078 -3.0711987749387153 -81.53743393165391
rradius 31.121245713831833
rwrist 19.24456470434369
rhand -17.775193876884362 8.883615954784576
rfingers 7.125019999999941
rthumb 8.484924635624337 -20.951825861617543
lclavicle 3.90234698441364E-16 4.116734511848747E-16
lhumerus -21.355027993988966 -4.691805209912555 91.75182866455567
lradius 64.82975751796694
lwrist 1.663387053702516
lhand -29.002889052456354 20.78324413368779
lfingers 7.125020000000026
lthumb -2.3624822015266584 50.76654440681511
rfemur 3.896589182464526 8.913253977052783 38.46353291574481
rtibia 21.001852824050765
rfoot -23.45228000598213 -8.641274283322764
rtoes 5.583468575983501
lfemur -26.410316113408417 2.1430976902328136 -12.434720444037843
ltibia 50.126421338703466
lfoot -5.111241639254722 -1.4516857258008162
ltoes -5.992944198607673
355
root 0 0 0 1.7415241171953415 -10.68860417323247 0.7729525866842216
lowerback 0.02348035619200939 -1.533344864739004 -2.5422053656185897
upperback -0.6573713095173949 -2.01103654244947 1.907026106152812
thorax -0.5062098570712349 -0.9846925869257138 3.3472845516723995
lowerneck -24.44680297948243 -1.609237982278402 -7.5860232075473535
upperneck 28.30153151305157 0.3598937160822433 1.8801617343839276
head 13.633262107734476 -0.6034033622761273 2.2120024964127905
rclavicle -5.842541413962341E-15 1.1714786615569922E-15
rhumerus -31.05592561558829 -1.4479754551496278 -82.12800980149423
rradius 31.717128787805247
rwrist 18.673346247855058
rhand -18.177363611506898 8.990041608532636
rfingers 7.125019999999944
rthumb 8.098380512214506 -20.86873657970465
lclavicle 3.735821960263963E-16 4.329436540217782E-17
lhumerus -20.95999033905681 -4.105198945092366 91.43897024362546
lradius 64.70731859475536
lwrist 1.7000725190749546
lhand -28.86856716799164 20.688878422585987
lfingers 7.125020000000026
lthumb -2.2295099259666022 50.67308137522036
rfemur 6.765888461555166 8.992753528247649 37.94639771660505
rtibia 20.539288235358384
rfoot -23.543598338982488 -8.28298059553594
rtoes 2.008636005576486
lfemur -30.160729903775554 0.1958303811990878 -10.756719058952205
ltibia 39.2714724658763
lfoot -6.759907386032891 2.064939824517204
ltoes -5.072181971060849
356
root 0 0 0 1.7527881751941503 -10.690228236763454 0.7809284475019636
lowerback 0.0028602177938206186 -1.5322984243758122 -2.555893607131909
upperback -0.6562083635429137 -2.009713579911595 1.885673268114871
thorax -0.49457014402870036 -0.9836788177991002 3.33343748172559
lowerneck -24.432818136299215 -1.626146623741058 -7.611419151742257
upperneck 28.316688505629077 0.32870197254867983 1.9169382507674282
head 13.63081263093647 -0.6120823983717412 2.22314124834164
rclavicle -8.735779193471088E-15 1.508284218015036E-15
rhumerus -30.850067051622908 -0.47538285679262593 -82.21753265304707
rradius 31.875410969237183
rwrist 18.420524944404875
rhand -18.441293432148047 9.075090138105121
rfingers 7.125019999999946
rthumb 7.845215536879386 -20.80813232357067
lclavicle 6.511687070498392E-16 -1.958718570766632E-16
lhumerus -20.67774468363709 -3.5388225756774743 91.17700628942964
lradius 64.60615625820219
lwrist 1.7024194048588401
lhand -28.753361520021947 20.612956102509322
lfingers 7.125020000000027
lthumb -2.1148086144925795 50.59731943134127
rfemur 10.660009664763402 8.794856787255933 36.98193864234473
rtibia 22.61123259781985
rfoot -22.396673430679755 -7.035930943379423
rtoes -2.293991532293121
lfemur -31.911439057081868 -3.1920326400288497 -9.075804022380115
ltibia 25.847354732378413
lfoot -6.145997564615129 4.489818138490067
ltoes -4.085011609211955
357
root 0 0 0 1.7535520935495748 -10.707359296671703 0.7815708852482397
lowerback -0.00650482365973204 -1.5349600748389958 -2.562205512461706
upperback -0.658111027677472 -2.0128028412294197 1.8634556707267005
thorax -0.49100359710458175 -0.9847302222755454 3.314172751323823
lowerneck -24.384649755826768 -1.6180793448942654 -7.618125934411569
upperneck 28.440810527428017 0.34165788459704705 1.8947387338065198
head 13.665112170336581 -0.6112808475275855 2.2182286251650076
rclavicle -1.0110010647934327E-14 1.4620974464488214E-15
rhumerus -30.839035061631098 -0.039319036707815336 -82.08738010280945
rradius 31.815101438503177
rwrist 18.322053446332273
rhand -18.554881372589502 9.15280895824352
rfingers 7.125019999999943
rthumb 7.7357065308998685 -20.736224557454225
lclavicle -1.6923766903447312E-16 -1.5480028352014316E-16
lhumerus -20.474332344286076 -2.8632588956685243 90.97330044279578
lradius 64.43801255276183
lwrist 1.6127527780550746
lhand -28.701651944846148 20.53209037055244
lfingers 7.125020000000028
lthumb -2.058984716305691 50.51192805458241
rfemur 13.967179335586474 7.925374824670339 35.31386928048181
rtibia 29.36963411150659
rfoot -19.149697459511607 -4.908126268771795
rtoes -6.351350124462436
lfemur -30.62306779664889 -5.043457679215834 -9.095183058576215
ltibia 20.1397270410648
lfoot -4.660530870793388 4.085677510263289
ltoes -3.4475932066714314
358
root 0 0 0 1.7461197181043668 -10.732592536216723 0.7835912156549407
lowerback -0.018228800225979835 -1.5401166936758184 -2.568449006177057
upperback -0.6685886922253742 -2.0187436618128314 1.8411483045232035
thorax -0.49348498383677475 -0.9867626998033728 3.293825451843209
lowerneck -24.36858934777058 -1.6117656570210175 -7.616529897242629
upperneck 28.569206488465483 0.35646122207769115 1.8609955569137964
head 13.708277194561676 -0.6116401513058477 2.2086973911729877
rclavicle -1.1102435830439798E-14 1.201382288988552E-15
rhumerus -30.90302651091635 0.16792363714324043 -81.87960540438725
rradius 31.676779785756356
rwrist 18.29497111144436
rhand -18.599136245553105 9.2154659481148
rfingers 7.12501999999994
rthumb 7.692417843561136 -20.67089658580646
lclavicle -2.321984228106627E-15 1.1903654688612303E-16
lhumerus -20.13077967339236 -2.1446484850213987 90.7850755755976
lradius 64.20760771488415
lwrist 1.4837872272048167
lhand -28.72738156695319 20.48520816607333
lfingers 7.125020000000028
lthumb -2.0793641546422146 50.456650773877975
rfemur 13.440732077014916 6.590714964844562 33.27667981009307
rtibia 36.249641049056905
rfoot -13.544554029799121 -2.5723522919988966
rtoes -7.048472146932538
lfemur -29.542189313617946 -5.211723053648251 -9.968004190819448
ltibia 20.048305596133794
lfoot -3.5924385599524333 3.1738945485788763
ltoes -2.1182228466701147
